# xmcd
#
# Track frame offsets:
#	150
#	32046
#	50136
#	93494
#	120215
#	152532
#	176574
#	217738
#	255019
#	265008
#	289329
#
# Disc length: 4200 seconds
#
# Revision: 2
# Processed by: cddbd v1.5.2PL0 Copyright (c) Steve Scherf et al.
# Submitted via: EZCDAudioConverter 8.0.2.1
#
DISCID=8910660b
DTITLE=Hòa Tấu. Hoa Đăng - Độc Tấu Tam Thập Lục, Tr'ưng
DYEAR=2004
DGENRE=Instrumental
TTITLE0=Hương rừng [Rorest fragrance]
TTITLE1=Giai điệu mùa hạ [Summer melodies]
TTITLE2=Rừng cây trước gió [Forest under the wind]
TTITLE3=Czardars (Giai điệu Digan) [Czardars (Gypsy melody)]
TTITLE4=Chào sông Mã anh hùng [Greeting heroic Ma river]
TTITLE5=Cao nguyên xanh [Green plateau]
TTITLE6=Vạt áo tứ thân [Four panel tradional dress]
TTITLE7=Rhapsodie T'Rung [Rhapsodie T'Rung]
TTITLE8=Bài ca hát đâu đó [Red bean song]
TTITLE9=Czardars (T'Rung va dan nhac) [Czardas (T'Rung and orchestra)]
TTITLE10=Rừng sang xuân [Forest in spring]
EXTD=
EXTT0=
EXTT1=
EXTT2=
EXTT3=
EXTT4=
EXTT5=
EXTT6=
EXTT7=
EXTT8=
EXTT9=
EXTT10=
PLAYORDER=
